<?xml version="1.0" encoding="utf-8"?>
<!-- Generator: Adobe Illustrator 23.0.1, SVG Export Plug-In . SVG Version: 6.00 Build 0)  -->
<svg version="1.1" id="Capa_1" xmlns="http://www.w3.org/2000/svg" xmlns:xlink="http://www.w3.org/1999/xlink" x="0px" y="0px"
	 viewBox="0 0 2000 2000" style="enable-background:new 0 0 2000 2000;" xml:space="preserve">
<g>
	<path d="M-4734.28,986.73c-0.05-0.59-0.17-1.15-0.34-1.69l-3.1-370.82c-0.13-15.33-0.27-32.71-7.26-48.49
		c-6.72-15.18-23.08-30.88-43.06-29.42c-14.08,1-27.73,10.83-35.62,25.64c-6.65,12.49-8.82,26.6-10.74,39.05l-48.03,311.91
		c-13.48-7.88-25.52-19.34-37.21-30.5c-18.82-17.95-38.28-36.52-64.83-41.96c-22.02-4.52-46.03,1.34-68.38,15.88
		c-18.82-14.13-38.3-28.71-61.5-36.89c-22.43-7.91-45.49-7.76-63.95,0l-140.76-248.7c-11.18-19.75-27.19-42.44-51.87-41.62
		c-23.17,0.67-39.37,23.12-43.39,44.96c-5.69,30.91,5.34,61.28,17.13,89.74c38.98,94.09,86.36,184.06,131.54,268.16
		c0.31,0.58,0.71,1.09,1.13,1.55l-54.08,88.67c-13.51,22.15-24.68,45.76-15.02,68.29c4.09,9.54,11.99,17.56,22.09,22.96
		c-2.84,3.62-4.91,8.04-5.72,12.91c-1.55,9.37,1.17,18.45,3.71,25.32c1.04,2.8,2.18,5.62,3.4,8.38c0,0.01,0.01,0.01,0.01,0.02
		c0.21,0.48,0.47,0.94,0.79,1.38c16.96,23.31,31.74,60.12,37.65,93.77l0.47,2.72c1.08,6.39,2.2,12.99,5.16,19.4
		c4.06,8.79,11.08,14.99,19.01,17c63.93,41.54,158.26,104.6,243.31,174.83c1.42,1.17,3.13,1.74,4.84,1.74
		c2.19,0,4.37-0.94,5.87-2.76c2.68-3.24,2.22-8.03-1.02-10.71c-86.11-71.1-181.5-134.8-245.75-176.53c-0.01,0-0.02-0.01-0.02-0.01
		c-0.32-0.21-0.67-0.37-1.03-0.53c-0.11-0.05-0.22-0.12-0.33-0.17c-0.1-0.04-0.22-0.06-0.33-0.09c-0.38-0.13-0.76-0.25-1.14-0.31
		c-0.01,0-0.02-0.01-0.03-0.01c-4.38-0.74-7.82-5.05-9.57-8.83c-2.11-4.56-3.01-9.9-3.97-15.55l-0.48-2.81
		c-2.58-14.7-6.67-29.72-11.83-44.09c12.81,6.13,27.4,10.32,37.7,10.8c0.12,0.01,0.24,0.01,0.35,0.01c2.53,0,4.9-1.26,6.32-3.38
		c1.48-2.21,1.7-5.04,0.57-7.45c-16.35-34.94-43.77-64.6-77.29-83.7c0.09-0.17,0.17-0.35,0.27-0.51c11.5-3.49,24.62-1.65,35.82,2.36
		c6.16,2.2,12.45,5.83,17.17,10.39c3.84,3.72,5.73,7.85,9.87,10.78c3.69,4.56,7.94,8.78,12.71,12.54
		c13.68,10.75,30.03,16.56,46.07,16.56c3.25,0,6.5-0.24,9.7-0.72c0.44-0.07,0.86-0.18,1.29-0.25c6.68,1.36,13.88-0.14,20.92,2.16
		c8.54,2.8,15.77,9.68,24.11,13.54c13.28,11.9,26.12,26.06,34.06,36.07c1.5,1.89,3.72,2.88,5.97,2.88c1.65,0,3.32-0.54,4.72-1.65
		c3.29-2.61,3.84-7.4,1.23-10.69c-4.24-5.34-10.29-12.41-17.35-19.9c-2.61-9.4-5.69-17.61-5.37-28.33
		c0.38-12.77,4.98-23.78,7.8-35.6c0.01-0.01,0.01-0.02,0.02-0.02c1.52-1.77,3.17-3.38,4.88-4.91c0.03-0.02,0.07-0.04,0.1-0.06
		c13.02-8.13,30.08-8.65,41.87-18.37c36.11,17.14,66.92,44.42,88.14,78.55c1.44,2.32,3.93,3.59,6.47,3.59
		c1.37,0,2.76-0.37,4.01-1.15c3.57-2.22,4.66-6.91,2.44-10.48c-24.09-38.73-59.67-69.26-101.33-87.36c0.03-0.22,0.05-0.44,0.09-0.66
		c0.75-4.13,2.15-9.48,5.4-12.39c3.67-3.29,9.08-3.37,13.84-2.58l15.1,8.05c1.14,0.61,2.36,0.9,3.57,0.9c2.72,0,5.35-1.46,6.72-4.03
		c1.98-3.71,0.57-8.31-3.13-10.29l-15.65-8.34c2.5-4.12,4.56-8.49,7.26-12.46c2.83-2.17,5.71-4.33,8.36-6.81
		c1.13-1.06,2.17-2.27,3.18-3.5c8.78-4.63,19.45-5.66,29.19-6.27c0.2-0.01,0.4-0.06,0.59-0.09c9.9,4.35,20.69,6.7,31.47,6.7
		c2.7,0,5.4-0.15,8.08-0.45c4.17-0.46,7.18-4.23,6.72-8.4c-0.47-4.18-4.22-7.19-8.4-6.71c-18.29,2.04-37.47-4.76-50.49-17.76
		l26.62-28.18c2.89-3.05,2.75-7.87-0.31-10.75c-3.06-2.89-7.87-2.75-10.75,0.31l-136.91,144.94c-21.48,22.74-41.33,41.87-66.8,45.73
		c-14.85,2.25-30.93-2.4-44.09-12.75c-11.56-9.09-19.36-21.4-21.99-34.4l101.34-134.21c0.19-0.25,0.36-0.51,0.51-0.77l0.61-1.05
		c9.16-11.7,17.7-23.91,25.96-35.71c11.45-16.37,23.3-33.29,36.57-48.47c12.36-14.14,26.06-24.75,39.98-31.43
		c0.42,0.26,0.88,0.48,1.36,0.66c10.8,3.96,20.2,11.45,26.48,21.08c1.46,2.24,3.89,3.45,6.38,3.45c1.42,0,2.86-0.4,4.15-1.23
		c3.52-2.3,4.51-7.01,2.22-10.53c-5.29-8.12-12.34-15.02-20.46-20.26c8.54-1.68,16.96-1.8,24.99-0.14
		c22.27,4.56,39.33,20.84,57.39,38.07c8.39,8.01,16.97,16.14,26.29,23.29c0,0,0.01,0.01,0.01,0.01c14.14,14.1,9.72,41.8,3.33,58.86
		c-5.35,4.82-11.68,8.23-16.98,8.23c-0.13,0-0.26,0-0.4-0.01c-4.18-0.12-7.71,3.16-7.85,7.36c-0.14,4.2,3.16,7.71,7.36,7.85
		c0.28,0.01,0.55,0.01,0.83,0.01c19.27,0,41.95-21.51,43.62-41.36c0-0.03,0.02-0.06,0.02-0.09l54.56-354.27
		c1.82-11.8,3.7-24.01,9.13-34.22c4.27-8.02,12.63-16.86,23.28-17.62c12.67-0.89,23.43,9.94,28.07,20.41
		c5.71,12.9,5.84,27.92,5.96,42.45l3.13,373.43c0.01,1,0.22,1.95,0.58,2.82l29.94,381.42c0.31,3.99,3.64,7.01,7.58,7.01
		c0.2,0,0.4-0.01,0.6-0.02c4.19-0.33,7.32-3.99,6.99-8.18L-4734.28,986.73z M-5399.39,576.83c2.84-15.44,13.93-32.07,28.87-32.51
		c16.52-0.36,29.11,17.87,38.19,33.91l123.23,217.73c3.28,10.55,5.32,23.72,3.54,34.48c-1.93,11.64-11.19,22.72-18.13,31.77
		c-5.29,6.9-9.48,13.61-13.37,21.39c-1.87,3.74-3.76,8.74-7.05,11.38c-8.61,6.91-16.27,2.4-24.3-0.38
		c-39.97-74.98-80.64-154.31-114.75-236.62C-5394.08,631.63-5404.33,603.65-5399.39,576.83z M-5244.44,1201.43
		c-12.77-3.64-27.34-10.5-34.34-17.62c-5.37-11.27-11.34-21.64-17.7-30.5c-1-2.29-1.95-4.62-2.81-6.93
		c-0.42-1.14-0.85-2.37-1.25-3.64C-5277.58,1157.54-5258.19,1177.84-5244.44,1201.43z M-5084.1,883.75
		c-13.81,15.8-25.9,33.06-37.58,49.76c-8.25,11.78-16.77,23.96-25.8,35.47c-0.22,0.28-0.42,0.58-0.6,0.88l-0.64,1.11l-98.55,130.51
		c-0.29,0.03-0.58,0.04-0.88,0.1c-13.62,2.93-28.07,5.6-41.86,3.3c-10.89-1.82-24.39-8.14-29.65-20.39
		c-6.94-16.19,2.64-35.7,14.03-54.37l95.15-156.01c3.71-6.08,7.67-12.52,12.14-18.56c1.15,0.92,2.58,1.52,4.16,1.64
		c14.92,1.14,29.52,5.9,42.24,13.78c1.25,0.77,2.63,1.14,4,1.14c2.55,0,5.03-1.28,6.47-3.6c2.21-3.57,1.11-8.26-2.46-10.47
		c-13.01-8.06-27.72-13.31-42.89-15.36c2.09-1.87,4.25-3.63,6.58-5.15c15.72-10.22,38.44-11.61,60.78-3.74
		c19.58,6.9,36.99,19.42,53.77,31.97C-5072.05,871.05-5078.23,877.03-5084.1,883.75z"/>
	<path d="M-4989.44,901.62c-3.7,1.99-5.09,6.6-3.1,10.3l4.59,8.54c1.37,2.56,4,4.01,6.71,4.01c1.22,0,2.45-0.29,3.6-0.91
		c3.7-1.99,5.09-6.6,3.1-10.3l-4.59-8.54C-4981.13,901.02-4985.74,899.63-4989.44,901.62z"/>
	<path d="M-5309.23,671.03c-5.01-0.63-9.97,0.09-14.73,1.44c-4.75,1.4-9.27,3.55-13.39,6.3c-4.13,2.74-7.85,6.11-10.96,9.96
		c-3.09,3.87-5.63,8.2-6.96,13.08c-0.27,1-0.13,2.13,0.47,3.07c1.14,1.78,3.51,2.3,5.29,1.16l0.11-0.07
		c3.89-2.49,7.24-5.04,10.62-7.47c3.35-2.45,6.65-4.82,9.99-7.15c3.34-2.33,6.72-4.6,10.21-6.89c3.48-2.34,7.09-4.58,10.84-7.36
		l0.09-0.07c0.7-0.52,1.2-1.32,1.32-2.26C-5306.1,672.93-5307.4,671.26-5309.23,671.03z"/>
	<path d="M-5267.85,817.45c2.64-0.69,5.13-1.67,7.49-2.93c2.36-1.25,4.59-2.75,6.66-4.55c2.06-1.83,4.01-3.89,5.57-6.7
		c0.23-0.41,0.39-0.88,0.45-1.38c0.25-2.06-1.22-3.94-3.28-4.19c-3.19-0.39-6-0.03-8.7,0.56c-2.68,0.62-5.21,1.53-7.6,2.7
		c-2.4,1.16-4.66,2.6-6.78,4.33c-2.1,1.76-4.08,3.75-5.67,6.5c-0.29,0.5-0.49,1.09-0.55,1.7c-0.25,2.35,1.46,4.46,3.81,4.71
		C-5273.29,818.53-5270.51,818.11-5267.85,817.45z"/>
	<path d="M-4805.63,705.66c2.41,1.12,4.88,1.91,7.42,2.4c2.54,0.5,5.14,0.72,7.81,0.62c2.68-0.14,5.41-0.52,8.32-1.73
		c0.4-0.17,0.8-0.42,1.14-0.73c1.53-1.43,1.61-3.84,0.18-5.37c-2.15-2.3-4.48-3.77-6.86-5c-2.39-1.19-4.85-2.06-7.37-2.65
		c-2.52-0.6-5.1-0.89-7.75-0.87c-2.66,0.06-5.37,0.37-8.27,1.51c-0.5,0.2-1,0.51-1.41,0.91c-1.72,1.66-1.76,4.4-0.1,6.12
		C-4810.38,703.11-4808.03,704.51-4805.63,705.66z"/>
	<path d="M-4779.18,868.98c-4.4-2.08-8.85-3.28-13.32-4.28c-4.47-0.94-8.96-1.55-13.47-1.88c-4.51-0.33-9.04-0.36-13.59-0.06
		c-4.55,0.33-9.12,0.93-13.74,2.37c-1,0.32-1.88,1.05-2.35,2.08c-0.88,1.93-0.03,4.22,1.9,5.1c4.4,2.01,8.86,3.17,13.34,4.06
		c4.48,0.86,8.97,1.4,13.49,1.63c4.52,0.24,9.05,0.19,13.6-0.19c4.56-0.43,9.13-1.07,13.75-2.59c0.84-0.28,1.58-0.89,1.99-1.75
		C-4776.78,871.78-4777.5,869.77-4779.18,868.98z"/>
	<path d="M-4807.17,1133.11c-12.68-2.7-25.2-5.22-37.62-8.1c-12.4-2.92-24.72-6-36.89-9.6l-9.14-2.67l-9.07-2.87l-9.06-2.94
		c-2.99-1.08-6-2.1-9.03-3.08c-12.02-4.2-23.95-8.73-36.09-13.18c-1.5-0.55-3.25-0.06-4.22,1.3c-1.16,1.63-0.77,3.9,0.86,5.06
		c10.76,7.64,22.37,13.99,34.39,19.43c5.99,2.78,12.16,5.13,18.33,7.5l9.38,3.18l9.47,2.9c12.73,3.51,25.68,6.27,38.79,7.86
		c13.08,1.64,26.3,2.31,39.46,1.45c1.37-0.09,2.58-1.08,2.88-2.5C-4804.37,1135.14-4805.46,1133.46-4807.17,1133.11z"/>
	<path d="M-4876.28,1332.45c-4.23-9.55-8.73-18.97-13.52-28.24c-4.76-9.28-9.85-18.39-15.18-27.37
		c-5.34-8.98-10.94-17.82-17.3-26.27c-0.91-1.21-2.53-1.77-4.05-1.27c-1.91,0.63-2.96,2.68-2.33,4.6
		c3.29,10.05,7.32,19.71,11.63,29.23c4.31,9.51,8.86,18.9,13.74,28.12c4.85,9.23,10,18.31,15.41,27.26
		c5.41,8.94,11.08,17.75,17.49,26.17c0.79,1.03,2.18,1.52,3.49,1.1c1.67-0.53,2.58-2.32,2.05-3.98
		C-4868.07,1351.7-4872.04,1342.01-4876.28,1332.45z"/>
	<path d="M-5059.73,1284.89c-0.65-0.97-1.81-1.56-3.04-1.41c-1.76,0.21-3.02,1.8-2.81,3.56l0,0.03c0.88,7.52,2.02,14.72,2.98,21.9
		c0.91,7.19,1.77,14.31,2.4,21.45c0.65,7.14,1.1,14.29,1.5,21.51c0.35,7.22,0.54,14.48,1.05,22l0,0.04c0.1,1.36,0.94,2.61,2.29,3.16
		c1.89,0.77,4.04-0.14,4.8-2.03c2.95-7.28,4.6-14.97,5.43-22.73c0.89-7.77,0.85-15.63,0.06-23.41c-0.81-7.78-2.35-15.49-4.79-22.91
		C-5052.23,1298.62-5055.38,1291.42-5059.73,1284.89z"/>
	<path d="M-5227.57,1110.83c0.03,0.26,0.05,0.52,0.1,0.77c0.05,0.21,0.13,0.42,0.19,0.63c0.09,0.27,0.17,0.55,0.28,0.82
		c0.02,0.04,0.03,0.09,0.05,0.14c9.87,21.2,36.94,32.95,57.4,33.25c0.03,0,0.06,0,0.09,0c0.01,0,0.01,0,0.02,0
		c0.1,0,0.21-0.03,0.31-0.03c0.43-0.02,0.85-0.05,1.26-0.14c0.14-0.03,0.27-0.09,0.41-0.12c0.39-0.1,0.76-0.22,1.12-0.39
		c0.05-0.02,0.1-0.03,0.14-0.05c15.25-7.22,23.31-22.89,28.05-34.05c3.21-7.55,6.49-16.6,6.5-26.39
		c0.01-11.39-4.77-21.67-12.79-27.51c-9.83-7.14-24.17-7.35-36.53-0.51c-9.94,5.49-17.17,14.23-23.71,22.71
		c-1.57,2.04-3.21,4.33-4.9,6.71c-4.54,6.36-9.68,13.58-14.76,17.03c-0.04,0.03-0.07,0.07-0.11,0.09c-0.24,0.17-0.44,0.36-0.66,0.55
		c-0.17,0.15-0.34,0.29-0.49,0.45c-0.18,0.19-0.33,0.4-0.48,0.61c-0.14,0.19-0.3,0.37-0.42,0.57c-0.13,0.2-0.22,0.42-0.33,0.64
		c-0.11,0.22-0.23,0.44-0.32,0.67c-0.09,0.23-0.14,0.46-0.2,0.7c-0.06,0.23-0.14,0.46-0.18,0.7c-0.04,0.25-0.05,0.49-0.07,0.74
		c-0.02,0.24-0.05,0.47-0.04,0.71C-5227.64,1110.36-5227.6,1110.6-5227.57,1110.83z M-5197.18,1095.49c1.58-2.21,3.1-4.35,4.56-6.24
		c5.8-7.52,11.63-14.6,19.03-18.69c5.92-3.27,14.47-4.69,20.23-0.5c4.03,2.93,6.53,8.75,6.52,15.19c0,7.07-2.67,14.31-5.29,20.46
		c-5.62,13.22-11.72,21.32-19.09,25.43c-13.89-0.78-30.63-7.9-39.02-19.47C-5205.33,1106.9-5201.06,1100.93-5197.18,1095.49z"/>
	<path d="M-5239.03,1014.44c-12.72-6.23-29.01-4.89-42.52,3.51c-12.52,7.79-22.68,21.99-28.1,32.83c0,0.01-0.01,0.01-0.01,0.01
		c0,0.01-0.01,0.02-0.01,0.03c-0.05,0.09-0.11,0.2-0.16,0.29c-0.05,0.1-0.07,0.21-0.12,0.32c-3.66,7.23-2.54,16.76,2.94,23.99
		c4.92,6.49,12.16,10.11,17.18,12.27c11.42,4.91,24.02,7.61,36.44,7.82c0.04,0,0.09,0,0.13,0c0.63,0,1.23-0.1,1.81-0.24
		c0.15-0.04,0.3-0.09,0.44-0.14c0.46-0.14,0.89-0.32,1.31-0.55c0.14-0.07,0.28-0.14,0.41-0.22c0.51-0.32,0.99-0.68,1.41-1.1
		c0.07-0.07,0.13-0.16,0.2-0.23c0.36-0.4,0.68-0.83,0.95-1.3c0.05-0.08,0.11-0.13,0.16-0.21c2.69-4.99,5.47-11.71,8.16-18.2
		c2.55-6.15,5.18-12.5,7.5-16.81c3.35-6.22,9.6-17.8,4.91-29.08C-5228.26,1022.01-5232.76,1017.52-5239.03,1014.44z
		 M-5244.3,1049.29c-2.69,4.99-5.47,11.71-8.16,18.2c-1.81,4.36-3.65,8.81-5.4,12.57c-8.9-0.68-17.79-2.84-25.96-6.35
		c-5.53-2.38-8.94-4.69-11.06-7.49c-1.96-2.58-2.59-6.04-1.47-8.05c0.03-0.05,0.04-0.11,0.07-0.17c0.03-0.05,0.07-0.1,0.1-0.15
		c5.59-11.31,14.49-21.9,22.68-26.99c8.96-5.57,19.86-6.65,27.79-2.76c2.86,1.4,4.87,3.24,5.68,5.17
		C-5238.37,1037.31-5241.1,1043.36-5244.3,1049.29z"/>
	<path d="M-4800.53,1006.21c-3.78-2.32-7.68-4.33-11.7-6.07c-4.01-1.75-8.15-3.23-12.4-4.4c-4.27-1.14-8.65-2.04-13.36-2.15
		c-1.03-0.02-2.07,0.37-2.85,1.16c-1.5,1.52-1.48,3.97,0.05,5.47c3.36,3.3,7.05,5.81,10.84,8.09c3.81,2.24,7.74,4.18,11.79,5.84
		c4.05,1.66,8.21,3.07,12.5,4.16c4.31,1.04,8.7,1.9,13.44,1.95c0.86,0.01,1.74-0.32,2.4-0.98c1.33-1.31,1.34-3.45,0.03-4.78
		C-4793.1,1011.13-4796.77,1008.58-4800.53,1006.21z"/>
</g>
<g>
	<path d="M-764.1,960.5l-3.1-370.81c-0.13-15.33-0.27-32.71-7.26-48.49c-6.72-15.18-23.09-30.89-43.06-29.42
		c-14.08,1-27.73,10.83-35.62,25.64c-6.65,12.49-8.82,26.6-10.74,39.05l-48.03,311.92c-13.48-7.88-25.52-19.34-37.21-30.5
		c-18.82-17.95-38.28-36.52-64.83-41.96c-22.01-4.51-46.02,1.34-68.38,15.89c-18.82-14.13-38.3-28.72-61.5-36.9
		c-22.43-7.91-45.49-7.76-63.95,0l-140.76-248.7c-11.18-19.75-27.27-42.35-51.87-41.62c-23.17,0.67-39.36,23.12-43.39,44.96
		c-5.69,30.9,5.34,61.28,17.13,89.74c38.98,94.08,86.36,184.06,131.55,268.16c0.31,0.58,0.71,1.09,1.13,1.55l-54.08,88.67
		c-13.51,22.15-24.69,45.76-15.02,68.29c4.09,9.54,11.99,17.56,22.09,22.96c-2.84,3.62-4.92,8.04-5.72,12.91
		c-1.55,9.37,1.17,18.45,3.71,25.32c1.04,2.81,2.18,5.63,3.4,8.38c0,0.01,0.01,0.01,0.01,0.02c0.21,0.48,0.47,0.94,0.79,1.38
		c16.96,23.31,31.74,60.12,37.65,93.77l0.46,2.71c1.08,6.39,2.2,13,5.16,19.41c4.06,8.79,11.08,14.98,19.01,17
		c63.93,41.54,158.27,104.61,243.32,174.83c1.42,1.17,3.13,1.74,4.84,1.74c2.19,0,4.37-0.94,5.87-2.76
		c2.68-3.24,2.22-8.03-1.02-10.71c-86.11-71.1-181.49-134.8-245.75-176.53c-0.01-0.01-0.02-0.01-0.03-0.01
		c-0.32-0.21-0.68-0.37-1.03-0.53c-0.11-0.05-0.21-0.12-0.33-0.16c-0.11-0.04-0.23-0.06-0.34-0.1c-0.37-0.13-0.75-0.24-1.13-0.31
		c-0.01,0-0.02-0.01-0.03-0.01c-4.38-0.73-7.81-5.04-9.56-8.83c-2.11-4.57-3.01-9.91-3.97-15.57l-0.48-2.8
		c-2.58-14.7-6.67-29.72-11.83-44.09c12.81,6.13,27.4,10.32,37.7,10.8c0.12,0.01,0.24,0.01,0.36,0.01c2.53,0,4.9-1.26,6.32-3.38
		c1.48-2.21,1.7-5.04,0.57-7.45c-16.35-34.95-43.77-64.61-77.29-83.7c0.09-0.17,0.17-0.35,0.27-0.51
		c11.5-3.49,24.62-1.65,35.82,2.36c6.16,2.2,12.45,5.82,17.17,10.39c3.84,3.72,5.73,7.85,9.87,10.78
		c3.69,4.56,7.94,8.78,12.71,12.54c13.68,10.76,30.03,16.56,46.07,16.56c3.25,0,6.5-0.24,9.7-0.72c0.44-0.07,0.86-0.18,1.29-0.25
		c6.68,1.36,13.88-0.14,20.91,2.16c8.54,2.8,15.78,9.69,24.11,13.55c13.27,11.9,26.12,26.06,34.05,36.07
		c1.5,1.89,3.72,2.88,5.96,2.88c1.66,0,3.32-0.54,4.72-1.65c3.29-2.61,3.84-7.4,1.23-10.69c-4.24-5.34-10.29-12.41-17.35-19.9
		c-2.61-9.4-5.68-17.61-5.37-28.33c0.38-12.77,4.98-23.78,7.8-35.6c0.01-0.01,0.01-0.02,0.02-0.02c1.52-1.77,3.17-3.38,4.88-4.91
		c0.03-0.02,0.07-0.04,0.1-0.06c13.02-8.13,30.08-8.65,41.87-18.37c36.11,17.14,66.92,44.42,88.14,78.55
		c1.44,2.32,3.93,3.59,6.47,3.59c1.37,0,2.76-0.37,4.01-1.15c3.57-2.22,4.66-6.91,2.44-10.48c-24.09-38.73-59.67-69.26-101.33-87.36
		c0.03-0.22,0.05-0.44,0.09-0.66c0.75-4.13,2.15-9.48,5.4-12.39c3.67-3.29,9.08-3.37,13.84-2.58l15.1,8.05
		c1.14,0.61,2.36,0.9,3.57,0.9c2.72,0,5.35-1.46,6.72-4.03c1.98-3.71,0.57-8.31-3.13-10.29l-15.65-8.34
		c2.51-4.12,4.56-8.49,7.26-12.46c2.83-2.17,5.71-4.33,8.36-6.81c1.13-1.06,2.17-2.27,3.18-3.5c8.78-4.63,19.45-5.66,29.19-6.27
		c0.2-0.01,0.4-0.06,0.6-0.09c9.9,4.35,20.69,6.7,31.47,6.7c2.7,0,5.39-0.15,8.08-0.45c4.17-0.46,7.18-4.23,6.72-8.4
		c-0.47-4.17-4.21-7.19-8.4-6.72c-18.29,2.03-37.47-4.76-50.49-17.76l26.62-28.18c2.89-3.05,2.75-7.87-0.31-10.75
		c-3.05-2.88-7.87-2.75-10.75,0.31l-136.91,144.94c-21.48,22.74-41.33,41.87-66.8,45.73c-14.86,2.24-30.93-2.4-44.09-12.75
		c-11.56-9.09-19.36-21.4-21.99-34.4l101.34-134.21c0.19-0.25,0.36-0.51,0.51-0.77l0.6-1.05c9.16-11.7,17.7-23.9,25.96-35.71
		c11.45-16.36,23.3-33.29,36.57-48.47c12.36-14.14,26.07-24.75,39.98-31.43c0.42,0.26,0.87,0.48,1.35,0.66
		c10.8,3.96,20.2,11.45,26.48,21.08c1.46,2.24,3.89,3.45,6.38,3.45c1.42,0,2.86-0.4,4.15-1.23c3.52-2.29,4.51-7.01,2.22-10.53
		c-5.29-8.12-12.33-15.01-20.45-20.25c8.54-1.68,16.95-1.8,24.98-0.15c22.27,4.56,39.33,20.84,57.39,38.07
		c8.39,8.01,16.97,16.14,26.29,23.29c0,0,0.01,0.01,0.01,0.01c14.14,14.1,9.73,41.8,3.33,58.86c-5.35,4.82-11.68,8.23-16.98,8.23
		c-0.13,0-0.26,0-0.4-0.01c-4.23-0.2-7.71,3.16-7.85,7.36c-0.14,4.2,3.16,7.71,7.36,7.85c0.27,0.01,0.55,0.01,0.83,0.01
		c19.28,0,41.96-21.52,43.62-41.37c0.01-0.03,0.02-0.05,0.02-0.08l54.56-354.27c1.82-11.8,3.7-24.01,9.14-34.22
		c4.27-8.02,12.63-16.86,23.28-17.62c12.67-0.88,23.43,9.94,28.07,20.41c5.71,12.9,5.84,27.92,5.96,42.45l3.13,373.43
		c0.01,1,0.22,1.95,0.58,2.82l29.94,381.42c0.31,3.99,3.64,7.01,7.57,7.01c0.2,0,0.4-0.01,0.6-0.02c4.19-0.33,7.32-3.99,6.99-8.18
		l-30.15-384.1C-763.8,961.6-763.93,961.04-764.1,960.5z M-1428.86,552.29c2.84-15.44,13.93-32.07,28.86-32.51
		c16.66-0.47,29.11,17.87,38.19,33.91l123.23,217.74c3.28,10.55,5.32,23.71,3.54,34.48c-1.93,11.64-11.19,22.72-18.13,31.77
		c-5.29,6.9-9.48,13.61-13.37,21.39c-1.87,3.74-3.76,8.74-7.05,11.38c-8.61,6.91-16.27,2.4-24.3-0.38
		c-39.97-74.99-80.64-154.31-114.74-236.62C-1423.55,607.09-1433.8,579.11-1428.86,552.29z M-1273.92,1176.89
		c-12.77-3.64-27.34-10.5-34.34-17.62c-5.37-11.28-11.34-21.64-17.7-30.5c-1-2.29-1.95-4.61-2.81-6.93
		c-0.42-1.14-0.85-2.37-1.25-3.64C-1307.06,1133-1287.66,1153.29-1273.92,1176.89z M-1113.57,859.21
		c-13.81,15.8-25.9,33.06-37.58,49.76c-8.25,11.78-16.77,23.96-25.8,35.47c-0.22,0.28-0.42,0.58-0.6,0.88l-0.64,1.11l-98.55,130.51
		c-0.29,0.03-0.58,0.04-0.88,0.1c-13.62,2.94-28.06,5.61-41.86,3.3c-10.89-1.82-24.39-8.14-29.65-20.39
		c-6.94-16.19,2.64-35.7,14.03-54.37l95.15-156.01c3.71-6.08,7.67-12.52,12.14-18.56c1.15,0.92,2.58,1.52,4.16,1.64
		c14.92,1.14,29.52,5.9,42.24,13.78c1.25,0.77,2.63,1.14,4,1.14c2.55,0,5.03-1.28,6.47-3.6c2.21-3.57,1.11-8.26-2.46-10.47
		c-13.01-8.06-27.72-13.31-42.89-15.36c2.09-1.87,4.25-3.63,6.58-5.15c15.72-10.22,38.44-11.61,60.78-3.74
		c19.58,6.91,36.99,19.42,53.77,31.98C-1101.52,846.51-1107.7,852.5-1113.57,859.21z"/>
	<path d="M-1018.91,877.08c-3.7,1.99-5.09,6.6-3.1,10.3l4.59,8.54c1.37,2.56,4,4.01,6.71,4.01c1.22,0,2.45-0.29,3.6-0.91
		c3.7-1.99,5.09-6.6,3.1-10.3l-4.59-8.54C-1010.6,876.48-1015.22,875.1-1018.91,877.08z"/>
	<path d="M-1338.7,646.49c-5.01-0.63-9.97,0.09-14.73,1.44c-4.75,1.4-9.27,3.55-13.39,6.3c-4.13,2.74-7.85,6.11-10.96,9.96
		c-3.09,3.87-5.64,8.2-6.96,13.08c-0.27,1-0.13,2.13,0.47,3.07c1.14,1.78,3.51,2.3,5.29,1.16l0.11-0.07
		c3.89-2.49,7.24-5.04,10.62-7.47c3.35-2.45,6.65-4.82,9.99-7.15c3.34-2.33,6.72-4.6,10.21-6.89c3.48-2.34,7.09-4.58,10.84-7.36
		l0.09-0.07c0.7-0.52,1.2-1.32,1.32-2.26C-1335.57,648.39-1336.87,646.72-1338.7,646.49z"/>
	<path d="M-1297.33,792.91c2.64-0.69,5.14-1.67,7.49-2.93c2.36-1.25,4.59-2.75,6.66-4.55c2.06-1.83,4.01-3.89,5.57-6.7
		c0.23-0.41,0.39-0.88,0.45-1.38c0.25-2.06-1.22-3.94-3.28-4.19c-3.19-0.39-6-0.03-8.7,0.56c-2.68,0.62-5.21,1.53-7.6,2.7
		c-2.4,1.16-4.66,2.6-6.78,4.33c-2.1,1.76-4.08,3.75-5.67,6.5c-0.29,0.5-0.49,1.09-0.55,1.7c-0.25,2.35,1.46,4.46,3.81,4.71
		C-1302.76,794-1299.98,793.57-1297.33,792.91z"/>
	<path d="M-835.1,681.12c2.41,1.12,4.88,1.91,7.42,2.4c2.54,0.5,5.14,0.72,7.81,0.62c2.68-0.14,5.41-0.52,8.32-1.73
		c0.4-0.17,0.8-0.42,1.14-0.73c1.53-1.43,1.61-3.84,0.18-5.37c-2.15-2.3-4.48-3.77-6.86-5c-2.39-1.19-4.85-2.06-7.37-2.65
		c-2.52-0.59-5.1-0.89-7.75-0.87c-2.66,0.06-5.37,0.37-8.27,1.51c-0.5,0.2-1,0.51-1.41,0.91c-1.72,1.66-1.76,4.4-0.1,6.12
		C-839.85,678.57-837.5,679.97-835.1,681.12z"/>
	<path d="M-808.65,844.44c-4.4-2.08-8.86-3.28-13.32-4.28c-4.47-0.94-8.96-1.55-13.47-1.88c-4.51-0.33-9.04-0.36-13.59-0.06
		c-4.55,0.33-9.12,0.93-13.74,2.37c-1,0.32-1.88,1.05-2.35,2.08c-0.88,1.93-0.03,4.22,1.9,5.1c4.4,2.01,8.86,3.17,13.34,4.06
		c4.48,0.86,8.97,1.4,13.49,1.63c4.52,0.24,9.05,0.19,13.6-0.19c4.56-0.43,9.13-1.07,13.75-2.59c0.84-0.28,1.58-0.89,1.99-1.75
		C-806.26,847.24-806.97,845.23-808.65,844.44z"/>
	<path d="M-836.64,1108.57c-12.68-2.7-25.2-5.22-37.62-8.1c-12.4-2.92-24.72-6-36.89-9.6l-9.14-2.67l-9.08-2.87l-9.06-2.94
		c-2.99-1.08-6-2.1-9.03-3.08c-12.02-4.2-23.95-8.73-36.09-13.18c-1.5-0.55-3.25-0.06-4.22,1.3c-1.16,1.63-0.77,3.9,0.86,5.06
		c10.76,7.64,22.37,13.99,34.39,19.43c5.99,2.78,12.16,5.13,18.33,7.5l9.38,3.18l9.47,2.9c12.73,3.51,25.68,6.27,38.79,7.86
		c13.08,1.64,26.3,2.31,39.46,1.45c1.37-0.09,2.58-1.08,2.88-2.5C-833.85,1110.6-834.94,1108.93-836.64,1108.57z"/>
	<path d="M-905.75,1307.91c-4.23-9.55-8.73-18.97-13.52-28.24c-4.76-9.28-9.85-18.39-15.18-27.37c-5.34-8.98-10.94-17.82-17.3-26.27
		c-0.91-1.21-2.53-1.77-4.05-1.27c-1.91,0.63-2.96,2.68-2.33,4.6c3.29,10.05,7.32,19.71,11.63,29.23
		c4.31,9.51,8.86,18.9,13.74,28.12c4.85,9.23,10,18.31,15.41,27.26c5.41,8.94,11.08,17.75,17.49,26.17c0.79,1.03,2.18,1.52,3.49,1.1
		c1.67-0.53,2.58-2.32,2.05-3.98C-897.54,1327.16-901.52,1317.47-905.75,1307.91z"/>
	<path d="M-1089.2,1260.35c-0.65-0.97-1.81-1.56-3.04-1.41c-1.76,0.21-3.02,1.8-2.81,3.56l0,0.03c0.88,7.52,2.02,14.72,2.98,21.9
		c0.91,7.19,1.77,14.31,2.4,21.45c0.65,7.14,1.1,14.29,1.5,21.51c0.35,7.22,0.54,14.48,1.05,22l0,0.04c0.1,1.36,0.94,2.61,2.29,3.16
		c1.89,0.77,4.04-0.14,4.8-2.03c2.95-7.28,4.6-14.97,5.43-22.73c0.89-7.77,0.85-15.63,0.06-23.41c-0.81-7.78-2.35-15.49-4.79-22.91
		C-1081.7,1274.08-1084.86,1266.89-1089.2,1260.35z"/>
	<path d="M-1257.04,1086.3c0.03,0.26,0.05,0.52,0.1,0.77c0.05,0.21,0.13,0.42,0.19,0.64c0.09,0.27,0.16,0.54,0.28,0.81
		c0.02,0.05,0.03,0.09,0.05,0.14c9.86,21.2,36.94,32.95,57.4,33.25c0.03,0,0.06,0,0.09,0c0.01,0,0.01,0,0.02,0
		c0.1,0,0.2-0.03,0.3-0.03c0.43-0.02,0.86-0.05,1.28-0.14c0.14-0.03,0.27-0.09,0.4-0.12c0.39-0.1,0.76-0.22,1.12-0.39
		c0.05-0.02,0.1-0.03,0.15-0.05c15.25-7.22,23.31-22.89,28.05-34.05c3.21-7.56,6.49-16.6,6.5-26.39
		c0.01-11.39-4.77-21.67-12.79-27.5c-9.83-7.14-24.17-7.35-36.53-0.51c-9.94,5.49-17.16,14.23-23.71,22.71
		c-1.58,2.04-3.22,4.34-4.92,6.72c-4.53,6.36-9.67,13.56-14.75,17.02c-0.04,0.03-0.07,0.07-0.11,0.09
		c-0.24,0.17-0.44,0.36-0.66,0.55c-0.17,0.15-0.34,0.29-0.49,0.45c-0.18,0.19-0.33,0.4-0.48,0.61c-0.14,0.19-0.3,0.37-0.42,0.57
		c-0.13,0.21-0.22,0.43-0.33,0.64c-0.11,0.22-0.23,0.44-0.32,0.67c-0.09,0.23-0.14,0.46-0.2,0.7c-0.06,0.23-0.14,0.46-0.18,0.7
		c-0.04,0.24-0.05,0.49-0.07,0.74c-0.02,0.24-0.05,0.48-0.04,0.72C-1257.11,1085.83-1257.07,1086.06-1257.04,1086.3z
		 M-1226.66,1070.97c1.58-2.22,3.1-4.36,4.57-6.26c5.8-7.51,11.63-14.6,19.03-18.69c5.92-3.27,14.47-4.69,20.23-0.5
		c4.03,2.93,6.53,8.75,6.52,15.19c0,7.07-2.68,14.31-5.29,20.46c-5.62,13.22-11.73,21.32-19.09,25.43
		c-13.89-0.78-30.63-7.9-39.01-19.47C-1234.8,1082.37-1230.54,1076.4-1226.66,1070.97z"/>
	<path d="M-1268.5,989.9c-12.72-6.24-29.01-4.89-42.52,3.51c-12.53,7.79-22.69,22-28.11,32.84c0,0,0,0,0,0.01c0,0,0,0.01,0,0.01
		c-0.05,0.1-0.12,0.21-0.16,0.31c-0.05,0.11-0.08,0.22-0.13,0.33c-3.65,7.23-2.53,16.75,2.95,23.97
		c4.93,6.5,12.16,10.11,17.17,12.27c11.42,4.91,24.02,7.61,36.44,7.83c0.04,0,0.09,0,0.13,0c0.63,0,1.23-0.1,1.81-0.24
		c0.15-0.04,0.29-0.09,0.44-0.14c0.46-0.14,0.9-0.33,1.31-0.55c0.14-0.07,0.27-0.13,0.4-0.22c0.51-0.32,0.99-0.68,1.42-1.11
		c0.07-0.07,0.12-0.15,0.19-0.23c0.37-0.4,0.69-0.84,0.96-1.31c0.04-0.08,0.11-0.13,0.15-0.21c2.69-4.99,5.47-11.71,8.17-18.2
		c2.54-6.15,5.18-12.5,7.5-16.81c3.36-6.22,9.6-17.8,4.91-29.08C-1257.73,997.47-1262.24,992.98-1268.5,989.9z M-1273.77,1024.75
		c-2.69,4.99-5.47,11.71-8.17,18.2c-1.81,4.36-3.65,8.81-5.4,12.57c-8.9-0.68-17.79-2.84-25.96-6.35
		c-5.53-2.37-8.94-4.68-11.06-7.48c-1.96-2.58-2.59-6.04-1.47-8.05c0.03-0.05,0.04-0.11,0.07-0.16c0.03-0.06,0.07-0.1,0.1-0.16
		c5.59-11.31,14.49-21.9,22.68-26.99c8.96-5.56,19.86-6.65,27.79-2.76c2.86,1.4,4.87,3.24,5.68,5.17
		C-1267.84,1012.77-1270.57,1018.82-1273.77,1024.75z"/>
	<path d="M-830,981.68c-3.78-2.32-7.68-4.33-11.7-6.07c-4.01-1.75-8.14-3.23-12.41-4.4c-4.27-1.14-8.65-2.04-13.36-2.15
		c-1.03-0.02-2.07,0.37-2.85,1.16c-1.5,1.52-1.48,3.97,0.05,5.47c3.36,3.3,7.05,5.81,10.84,8.09c3.81,2.24,7.74,4.18,11.79,5.84
		c4.05,1.66,8.21,3.07,12.5,4.16c4.31,1.04,8.7,1.9,13.44,1.95c0.86,0.01,1.74-0.32,2.4-0.98c1.33-1.31,1.34-3.45,0.03-4.78
		C-822.57,986.59-826.25,984.04-830,981.68z"/>
	<path d="M-1200.06,531.86l37.9,2.16c21.62,2.41,28.24,9,30.67,30.56l2.18,62.03c0.08,2.02,1.7,3.68,3.75,3.75
		c2.15,0.08,3.95-1.61,4.03-3.75l2.17-62.01c2.43-21.58,9.04-28.16,30.68-30.58l37.9-2.16c1.95-0.11,3.56-1.67,3.67-3.67
		c0.12-2.15-1.52-3.99-3.67-4.11l-37.88-2.16c0,0,0,0-0.01,0c-21.65-2.41-28.26-9-30.69-30.58l-2.17-62.01
		c-0.08-2.02-1.7-3.68-3.76-3.75c-2.15-0.08-3.95,1.61-4.03,3.75l-2.18,62.03c-2.43,21.57-9.05,28.15-30.69,30.56c0,0,0,0-0.01,0
		l-37.88,2.16c-1.95,0.11-3.56,1.67-3.67,3.67C-1203.86,529.9-1202.21,531.74-1200.06,531.86z M-1125.42,514.97
		c3.06,5.71,7.29,9.94,13,13c-5.71,3.06-9.94,7.29-13,13c-3.06-5.71-7.29-9.94-13-13C-1132.71,524.91-1128.48,520.68-1125.42,514.97
		z"/>
	<path d="M-678.82,872.01l28.79,2.14c0.03,0,0.06,0.01,0.08,0.02c15.9,1.77,20.49,6.34,22.27,22.2l2.17,47.34
		c0.1,1.98,1.69,3.62,3.71,3.71c2.15,0.1,3.97-1.56,4.07-3.71l2.17-47.33c1.78-15.86,6.37-20.44,22.27-22.21
		c0.03,0,0.05-0.01,0.08-0.02l28.79-2.14c1.9-0.14,3.46-1.65,3.6-3.6c0.16-2.15-1.45-4.02-3.6-4.18l-28.79-2.14
		c-0.03,0-0.06-0.01-0.09-0.02c-15.9-1.77-20.49-6.34-22.27-22.21l-2.17-47.33c-0.1-1.98-1.69-3.62-3.71-3.71
		c-2.15-0.1-3.97,1.56-4.07,3.71l-2.17,47.34c-1.78,15.86-6.37,20.43-22.27,22.2c-0.03,0-0.06,0.01-0.09,0.02l-28.78,2.14
		c-1.9,0.14-3.46,1.65-3.6,3.6C-682.58,869.98-680.97,871.85-678.82,872.01z M-621.62,860.86c1.92,2.94,4.32,5.33,7.26,7.26
		c-2.94,1.92-5.33,4.32-7.26,7.26c-1.92-2.94-4.32-5.33-7.26-7.26C-625.94,866.2-623.54,863.8-621.62,860.86z"/>
	<path d="M-1412.79,914.83l-28.79-2.14c-0.03,0-0.06-0.01-0.08-0.02c-15.9-1.77-20.49-6.34-22.27-22.21l-2.17-47.33
		c-0.1-1.98-1.69-3.62-3.71-3.71c-2.15-0.1-3.97,1.56-4.07,3.71l-2.17,47.34c-1.78,15.86-6.37,20.43-22.27,22.2
		c-0.03,0-0.06,0.01-0.08,0.02l-28.79,2.14c-1.9,0.14-3.46,1.65-3.6,3.6c-0.16,2.15,1.45,4.02,3.6,4.18l28.78,2.14
		c0.03,0,0.06,0.01,0.09,0.02c15.9,1.77,20.49,6.34,22.27,22.2l2.17,47.34c0.1,1.98,1.69,3.62,3.71,3.71
		c2.15,0.1,3.97-1.56,4.07-3.71l2.17-47.33c1.78-15.86,6.37-20.44,22.27-22.21c0.03,0,0.06-0.01,0.09-0.02l28.79-2.14
		c1.9-0.14,3.46-1.65,3.6-3.6C-1409.03,916.86-1410.64,914.99-1412.79,914.83z M-1469.99,925.98c-1.92-2.94-4.32-5.33-7.26-7.26
		c2.94-1.92,5.33-4.32,7.26-7.26c1.92,2.94,4.32,5.33,7.26,7.26C-1465.68,920.65-1468.07,923.04-1469.99,925.98z"/>
	<path d="M-1169.33,1491.23l-28.79-2.14c-0.03,0-0.06-0.01-0.09-0.02c-15.9-1.77-20.49-6.34-22.27-22.2l-2.17-47.34
		c-0.1-1.98-1.69-3.62-3.71-3.71c-2.15-0.1-3.97,1.56-4.07,3.71l-2.17,47.33c-1.78,15.87-6.37,20.44-22.27,22.21
		c-0.03,0-0.06,0.01-0.09,0.02l-28.79,2.14c-1.9,0.14-3.46,1.65-3.6,3.6c-0.16,2.15,1.45,4.02,3.6,4.18l28.79,2.14
		c0.03,0,0.05,0.01,0.08,0.02c15.9,1.77,20.49,6.34,22.27,22.21l2.17,47.33c0.1,1.98,1.69,3.62,3.71,3.71
		c2.15,0.1,3.97-1.56,4.07-3.71l2.17-47.34c1.78-15.86,6.37-20.43,22.27-22.2c0.03,0,0.06-0.01,0.08-0.02l28.79-2.14
		c1.9-0.14,3.46-1.65,3.6-3.6C-1165.56,1493.26-1167.18,1491.39-1169.33,1491.23z M-1226.53,1502.37c-1.92-2.94-4.32-5.33-7.26-7.26
		c2.94-1.92,5.33-4.32,7.26-7.26c1.92,2.94,4.32,5.33,7.26,7.26C-1222.21,1497.04-1224.6,1499.44-1226.53,1502.37z"/>
	<path d="M-541.46,1185.94c2.92-10.88,3.07-22.37,0.22-33.58c-4.38-17.29-15.23-31.83-30.55-40.96
		c-15.32-9.12-33.28-11.73-50.57-7.35c-11.22,2.84-21.25,8.45-29.42,16.2c-37.62-17.15-46.14-14.18-49.63-8.32
		c-3.49,5.86-2.04,14.76,30.96,39.67c-2.91,10.88-3.06,22.36-0.22,33.57c4.38,17.29,15.24,31.83,30.56,40.96
		c10.47,6.23,22.17,9.43,34.04,9.43c5.5,0,11.05-0.69,16.52-2.07c11.21-2.84,21.24-8.45,29.42-16.19
		c21.1,9.61,33.06,12.91,40.09,12.91c5.51,0,8.01-2.01,9.54-4.58C-507.01,1219.75-508.46,1210.85-541.46,1185.94z M-619.37,1115.83
		c4.48-1.14,9.01-1.69,13.51-1.69c9.71,0,19.28,2.61,27.84,7.71c12.53,7.46,21.4,19.35,24.99,33.49s1.45,28.82-6.01,41.35
		c-1.21,2.04-2.58,3.94-4.02,5.77c-14.74-7.1-31.09-15.94-47.6-25.77c-16.51-9.83-32.08-19.99-45.35-29.59
		c0.93-2.14,1.95-4.25,3.16-6.28C-645.4,1128.29-633.5,1119.42-619.37,1115.83z M-687.97,1119.92c4.96,0.97,13.85,3.74,27.82,9.91
		c-1.11,1.54-2.18,3.12-3.16,4.77c-0.98,1.65-1.86,3.35-2.69,5.07C-678.1,1130.31-684.75,1123.82-687.97,1119.92z M-592.54,1221.68
		c-14.13,3.58-28.82,1.45-41.35-6.02c-12.53-7.46-21.4-19.35-24.99-33.49c-1.92-7.57-2.15-15.28-0.85-22.75
		c12.79,9.07,27.41,18.55,42.83,27.73c15.41,9.18,30.71,17.52,44.76,24.43C-578.08,1216.28-584.97,1219.76-592.54,1221.68z
		 M-551.76,1207.69c1.11-1.55,2.18-3.12,3.17-4.78c0.98-1.65,1.86-3.35,2.69-5.06c12.09,9.35,18.75,15.84,21.97,19.74
		C-528.9,1216.63-537.79,1213.87-551.76,1207.69z"/>
	<circle cx="-1458.01" cy="1185.6" r="11.99"/>
	<circle cx="-1003.79" cy="693.5" r="11.99"/>
	<circle cx="-633.61" cy="1389.42" r="11.99"/>
	<circle cx="-1277.12" cy="482.39" r="11.99"/>
	<circle cx="-1477.25" cy="705.49" r="11.99"/>
	<path d="M-661.26,625.55c6.62,0,11.99-5.37,11.99-11.99c0-6.62-5.37-11.99-11.99-11.99c-6.62,0-11.99,5.37-11.99,11.99
		C-673.25,620.18-667.88,625.55-661.26,625.55z"/>
	<path d="M-1360.33,1354.32c-6.62,0-11.99,5.37-11.99,11.99c0,6.62,5.37,11.99,11.99,11.99c6.62,0,11.99-5.37,11.99-11.99
		C-1348.34,1359.69-1353.71,1354.32-1360.33,1354.32z"/>
</g>
<g>
	<path d="M-2747.72,925.75l-3.1-370.82c-0.13-15.33-0.27-32.71-7.26-48.49c-6.72-15.17-23.03-30.89-43.07-29.42
		c-14.08,1-27.73,10.83-35.62,25.64c-6.65,12.49-8.82,26.6-10.74,39.05l-48.03,311.92c-13.48-7.88-25.52-19.34-37.21-30.5
		c-18.82-17.96-38.28-36.52-64.84-41.97c-22.01-4.52-46.02,1.34-68.38,15.89c-18.82-14.13-38.3-28.71-61.5-36.9
		c-22.42-7.91-45.49-7.76-63.95,0l-140.76-248.7c-11.01-19.45-26.69-41.64-50.73-41.64c-0.38,0-0.75,0-1.13,0.01
		c-23.17,0.67-39.37,23.12-43.39,44.96c-5.69,30.91,5.34,61.28,17.13,89.74c38.99,94.1,86.36,184.07,131.55,268.16
		c0.31,0.58,0.71,1.09,1.13,1.55l-54.08,88.67c-13.51,22.16-24.68,45.76-15.02,68.29c4.09,9.54,11.99,17.56,22.09,22.96
		c-2.84,3.62-4.91,8.04-5.72,12.91c-1.55,9.37,1.17,18.45,3.71,25.32c1.04,2.8,2.18,5.62,3.4,8.38c0,0.01,0.01,0.01,0.01,0.02
		c0.21,0.48,0.47,0.94,0.8,1.38c16.96,23.31,31.74,60.12,37.65,93.77l0.47,2.72c1.08,6.39,2.2,12.99,5.16,19.39
		c4.06,8.79,11.08,14.98,19.01,17c63.93,41.54,158.27,104.6,243.32,174.83c1.42,1.17,3.13,1.74,4.84,1.74
		c2.19,0,4.37-0.94,5.87-2.76c2.67-3.24,2.22-8.03-1.02-10.71c-86.11-71.1-181.49-134.8-245.75-176.53
		c-0.01-0.01-0.02-0.01-0.03-0.01c-0.31-0.2-0.66-0.36-1-0.52c-0.12-0.06-0.23-0.13-0.36-0.18c-0.1-0.04-0.2-0.05-0.3-0.09
		c-0.39-0.13-0.77-0.25-1.17-0.32c-0.01,0-0.02-0.01-0.03-0.01c-4.38-0.74-7.82-5.05-9.57-8.83c-2.11-4.56-3.01-9.9-3.97-15.55
		l-0.48-2.81c-2.58-14.7-6.67-29.72-11.83-44.09c12.81,6.13,27.4,10.32,37.7,10.8c0.12,0.01,0.24,0.01,0.36,0.01
		c2.53,0,4.9-1.26,6.32-3.38c1.48-2.21,1.7-5.04,0.57-7.45c-16.35-34.94-43.77-64.6-77.29-83.7c0.09-0.17,0.17-0.35,0.27-0.51
		c11.5-3.49,24.62-1.65,35.82,2.36c6.16,2.2,12.45,5.82,17.17,10.39c3.84,3.72,5.73,7.85,9.87,10.78
		c3.69,4.56,7.94,8.78,12.71,12.54c13.68,10.75,30.03,16.56,46.07,16.56c3.25,0,6.5-0.24,9.7-0.72c0.44-0.07,0.86-0.18,1.29-0.25
		c6.68,1.36,13.88-0.14,20.92,2.16c8.54,2.8,15.77,9.68,24.11,13.55c13.28,11.9,26.12,26.06,34.06,36.07
		c1.5,1.89,3.72,2.88,5.96,2.88c1.66,0,3.32-0.54,4.72-1.65c3.29-2.61,3.84-7.4,1.23-10.69c-4.24-5.34-10.29-12.41-17.35-19.9
		c-2.61-9.4-5.69-17.61-5.37-28.33c0.38-12.77,4.98-23.78,7.8-35.6c0.01-0.01,0.01-0.02,0.02-0.02c1.52-1.77,3.17-3.38,4.88-4.91
		c0.03-0.02,0.07-0.04,0.1-0.06c13.02-8.13,30.08-8.65,41.87-18.37c36.11,17.14,66.92,44.42,88.14,78.55
		c1.44,2.32,3.93,3.59,6.47,3.59c1.37,0,2.76-0.37,4.01-1.15c3.57-2.22,4.66-6.91,2.44-10.48c-24.09-38.73-59.67-69.26-101.33-87.36
		c0.03-0.22,0.05-0.44,0.09-0.66c0.75-4.13,2.15-9.48,5.4-12.39c3.67-3.29,9.08-3.37,13.84-2.58l15.1,8.05
		c1.14,0.61,2.36,0.9,3.57,0.9c2.72,0,5.35-1.46,6.72-4.03c1.98-3.71,0.57-8.31-3.13-10.29l-15.65-8.34
		c2.51-4.12,4.56-8.49,7.26-12.46c2.83-2.17,5.71-4.33,8.36-6.81c1.13-1.06,2.17-2.27,3.18-3.5c8.78-4.63,19.45-5.66,29.19-6.27
		c0.2-0.01,0.4-0.06,0.59-0.09c9.9,4.35,20.69,6.7,31.47,6.7c2.7,0,5.4-0.15,8.08-0.45c4.18-0.46,7.18-4.23,6.72-8.4
		c-0.46-4.17-4.24-7.2-8.4-6.72c-18.29,2.04-37.47-4.76-50.49-17.76l26.62-28.18c2.89-3.05,2.75-7.87-0.31-10.75
		c-3.05-2.88-7.87-2.75-10.75,0.31l-136.91,144.94c-21.48,22.74-41.33,41.87-66.8,45.73c-14.86,2.24-30.93-2.4-44.09-12.75
		c-11.56-9.09-19.36-21.4-21.99-34.4l101.34-134.21c0.19-0.25,0.36-0.51,0.51-0.77l0.6-1.05c9.16-11.7,17.7-23.91,25.97-35.71
		c11.45-16.36,23.29-33.28,36.57-48.46c12.36-14.14,26.06-24.75,39.98-31.43c0.42,0.26,0.88,0.48,1.36,0.66
		c10.8,3.96,20.2,11.45,26.48,21.08c1.46,2.24,3.89,3.45,6.38,3.45c1.42,0,2.86-0.4,4.15-1.23c3.52-2.29,4.51-7.01,2.22-10.53
		c-5.29-8.12-12.34-15.02-20.46-20.26c8.54-1.68,16.96-1.8,24.99-0.15c22.28,4.57,39.33,20.84,57.39,38.07
		c8.39,8.01,16.97,16.14,26.28,23.29c0,0,0.01,0.01,0.01,0.01c14.14,14.1,9.73,41.8,3.33,58.86c-5.35,4.82-11.68,8.23-16.98,8.23
		c-0.13,0-0.26,0-0.4-0.01c-4.24-0.07-7.71,3.16-7.85,7.36c-0.14,4.2,3.16,7.71,7.36,7.85c0.27,0.01,0.55,0.01,0.83,0.01
		c19.28,0,41.96-21.52,43.62-41.37c0.01-0.03,0.02-0.05,0.02-0.08l54.56-354.27c1.82-11.81,3.7-24.01,9.13-34.22
		c4.27-8.02,12.63-16.86,23.28-17.62c12.67-0.85,23.44,9.95,28.07,20.41c5.71,12.89,5.84,27.92,5.96,42.45l3.13,373.43
		c0.01,1,0.22,1.95,0.58,2.82l29.94,381.42c0.31,3.99,3.64,7.01,7.57,7.01c0.2,0,0.4-0.01,0.6-0.02c4.19-0.33,7.32-3.99,6.99-8.18
		l-30.15-384.09C-2747.43,926.85-2747.55,926.29-2747.72,925.75z M-3412.48,517.54c2.84-15.44,13.93-32.07,28.86-32.51
		c16.59-0.5,29.11,17.88,38.19,33.91l123.23,217.73c3.28,10.55,5.32,23.72,3.54,34.48c-1.93,11.64-11.19,22.72-18.13,31.77
		c-5.29,6.9-9.48,13.61-13.37,21.39c-1.87,3.74-3.76,8.74-7.05,11.38c-8.61,6.91-16.27,2.4-24.3-0.38
		c-39.96-74.98-80.63-154.3-114.74-236.62C-3407.18,572.34-3417.42,544.36-3412.48,517.54z M-3257.54,1142.15
		c-12.77-3.64-27.34-10.5-34.34-17.62c-5.37-11.27-11.34-21.64-17.7-30.5c-1-2.29-1.95-4.61-2.81-6.93
		c-0.42-1.14-0.85-2.37-1.25-3.64C-3290.68,1098.25-3271.28,1118.55-3257.54,1142.15z M-3097.19,824.46
		c-13.81,15.8-25.9,33.06-37.58,49.75c-8.25,11.78-16.77,23.97-25.8,35.47c-0.22,0.28-0.42,0.58-0.6,0.88l-0.64,1.11l-98.55,130.51
		c-0.29,0.03-0.58,0.04-0.88,0.1c-13.62,2.93-28.07,5.61-41.86,3.3c-10.89-1.82-24.39-8.14-29.65-20.39
		c-6.94-16.18,2.64-35.69,14.03-54.37l95.15-156.01c3.71-6.08,7.67-12.52,12.14-18.56c1.15,0.92,2.58,1.52,4.16,1.64
		c14.92,1.14,29.52,5.9,42.24,13.78c1.25,0.77,2.63,1.14,4,1.14c2.55,0,5.03-1.28,6.47-3.6c2.21-3.57,1.11-8.26-2.46-10.47
		c-13.01-8.06-27.73-13.31-42.89-15.36c2.09-1.87,4.25-3.63,6.58-5.15c15.72-10.22,38.45-11.61,60.79-3.74
		c19.58,6.91,36.99,19.42,53.77,31.98C-3085.15,811.76-3091.33,817.75-3097.19,824.46z"/>
	<path d="M-3002.53,842.33c-3.7,1.99-5.09,6.6-3.1,10.3l4.59,8.54c1.37,2.56,4,4.01,6.71,4.01c1.22,0,2.45-0.29,3.6-0.91
		c3.7-1.99,5.09-6.6,3.1-10.3l-4.59-8.54C-2994.23,841.73-2998.84,840.35-3002.53,842.33z"/>
	<path d="M-3322.32,611.74c-5.01-0.63-9.97,0.09-14.73,1.44c-4.74,1.4-9.27,3.55-13.39,6.3c-4.13,2.74-7.85,6.11-10.96,9.96
		c-3.09,3.87-5.64,8.2-6.96,13.08c-0.27,1-0.13,2.13,0.47,3.07c1.14,1.78,3.51,2.3,5.29,1.16l0.11-0.07
		c3.89-2.49,7.24-5.04,10.62-7.47c3.35-2.45,6.65-4.82,9.99-7.15c3.34-2.33,6.72-4.6,10.21-6.89c3.48-2.34,7.09-4.58,10.84-7.36
		l0.09-0.07c0.7-0.52,1.2-1.32,1.32-2.26C-3319.2,613.64-3320.49,611.97-3322.32,611.74z"/>
	<path d="M-3280.95,758.16c2.64-0.69,5.14-1.67,7.49-2.93c2.36-1.25,4.59-2.75,6.66-4.55c2.06-1.83,4.01-3.89,5.57-6.7
		c0.23-0.41,0.39-0.88,0.45-1.38c0.25-2.06-1.22-3.94-3.28-4.19c-3.19-0.39-6-0.03-8.7,0.56c-2.68,0.62-5.21,1.53-7.6,2.7
		c-2.4,1.16-4.67,2.6-6.78,4.33c-2.1,1.76-4.08,3.75-5.67,6.5c-0.29,0.5-0.49,1.09-0.55,1.7c-0.25,2.35,1.46,4.46,3.81,4.71
		C-3286.38,759.25-3283.61,758.82-3280.95,758.16z"/>
	<path d="M-2818.73,646.37c2.41,1.12,4.88,1.91,7.42,2.4c2.54,0.5,5.14,0.72,7.81,0.62c2.68-0.14,5.41-0.52,8.32-1.73
		c0.4-0.17,0.8-0.42,1.14-0.73c1.53-1.43,1.61-3.84,0.18-5.37c-2.15-2.3-4.48-3.77-6.86-5c-2.39-1.19-4.85-2.06-7.37-2.65
		c-2.52-0.59-5.1-0.89-7.75-0.87c-2.66,0.06-5.37,0.37-8.27,1.51c-0.5,0.2-1,0.51-1.41,0.91c-1.72,1.66-1.76,4.4-0.1,6.12
		C-2823.47,643.82-2821.13,645.22-2818.73,646.37z"/>
	<path d="M-2792.28,809.69c-4.4-2.08-8.86-3.28-13.32-4.28c-4.47-0.94-8.96-1.55-13.47-1.88c-4.51-0.33-9.04-0.36-13.59-0.06
		c-4.55,0.33-9.12,0.93-13.74,2.37c-1,0.32-1.88,1.05-2.35,2.08c-0.88,1.93-0.03,4.22,1.9,5.1c4.4,2.01,8.86,3.17,13.34,4.06
		c4.48,0.86,8.97,1.4,13.49,1.63c4.52,0.24,9.05,0.19,13.6-0.19c4.56-0.43,9.13-1.07,13.75-2.59c0.84-0.28,1.58-0.89,1.99-1.75
		C-2789.88,812.49-2790.6,810.49-2792.28,809.69z"/>
	<path d="M-2820.26,1073.82c-12.68-2.7-25.2-5.22-37.62-8.1c-12.4-2.92-24.72-6-36.89-9.6l-9.14-2.67l-9.07-2.87l-9.06-2.94
		c-2.99-1.08-6-2.1-9.03-3.08c-12.02-4.2-23.95-8.73-36.09-13.18c-1.5-0.55-3.25-0.06-4.22,1.3c-1.16,1.63-0.77,3.9,0.86,5.06
		c10.76,7.64,22.37,13.99,34.39,19.43c5.99,2.78,12.16,5.13,18.33,7.5l9.38,3.18l9.47,2.9c12.73,3.51,25.68,6.27,38.79,7.86
		c13.08,1.64,26.3,2.31,39.46,1.45c1.37-0.09,2.58-1.08,2.88-2.5C-2817.47,1075.85-2818.56,1074.18-2820.26,1073.82z"/>
	<path d="M-2889.37,1273.16c-4.23-9.55-8.73-18.97-13.52-28.24c-4.76-9.28-9.85-18.39-15.18-27.37
		c-5.34-8.98-10.94-17.82-17.3-26.27c-0.91-1.21-2.53-1.77-4.05-1.27c-1.91,0.63-2.96,2.68-2.33,4.6
		c3.29,10.05,7.32,19.71,11.63,29.23c4.31,9.51,8.86,18.9,13.74,28.12c4.85,9.23,10,18.31,15.41,27.26
		c5.41,8.94,11.08,17.75,17.49,26.17c0.79,1.03,2.18,1.52,3.49,1.1c1.67-0.53,2.58-2.32,2.05-3.98
		C-2881.17,1292.41-2885.14,1282.72-2889.37,1273.16z"/>
	<path d="M-3072.83,1225.6c-0.65-0.97-1.81-1.55-3.04-1.41c-1.76,0.21-3.02,1.8-2.81,3.56l0,0.03c0.88,7.52,2.02,14.72,2.98,21.9
		c0.91,7.19,1.77,14.31,2.4,21.45c0.65,7.14,1.1,14.29,1.5,21.51c0.35,7.22,0.54,14.48,1.05,22l0,0.04c0.1,1.36,0.94,2.61,2.29,3.16
		c1.89,0.77,4.04-0.14,4.8-2.03c2.95-7.28,4.6-14.97,5.43-22.73c0.89-7.76,0.85-15.63,0.06-23.41c-0.81-7.78-2.35-15.48-4.79-22.91
		C-3065.33,1239.33-3068.48,1232.14-3072.83,1225.6z"/>
	<path d="M-3240.67,1051.55c0.03,0.26,0.05,0.52,0.1,0.77c0.05,0.21,0.13,0.42,0.19,0.64c0.09,0.27,0.16,0.54,0.28,0.81
		c0.02,0.05,0.03,0.09,0.05,0.14c9.87,21.2,36.94,32.95,57.4,33.25c0.03,0,0.06,0,0.09,0c0.01,0,0.01,0,0.02,0
		c0.1,0,0.2-0.03,0.3-0.03c0.43-0.02,0.86-0.05,1.28-0.14c0.14-0.03,0.27-0.09,0.4-0.12c0.39-0.11,0.76-0.22,1.12-0.39
		c0.05-0.02,0.1-0.03,0.15-0.05c15.25-7.22,23.31-22.89,28.05-34.05c3.21-7.55,6.49-16.6,6.5-26.39
		c0.01-11.39-4.77-21.68-12.79-27.5c-9.83-7.15-24.17-7.35-36.53-0.52c-9.94,5.49-17.17,14.23-23.71,22.71
		c-1.57,2.04-3.21,4.33-4.9,6.71c-4.54,6.36-9.68,13.58-14.76,17.03c-0.04,0.03-0.07,0.06-0.11,0.09c-0.24,0.17-0.45,0.37-0.67,0.56
		c-0.16,0.15-0.33,0.28-0.48,0.44c-0.18,0.19-0.33,0.41-0.49,0.62c-0.14,0.19-0.29,0.36-0.42,0.56c-0.13,0.21-0.23,0.43-0.34,0.65
		c-0.11,0.22-0.23,0.43-0.31,0.66c-0.09,0.23-0.14,0.47-0.2,0.7c-0.06,0.23-0.14,0.46-0.18,0.7c-0.04,0.24-0.05,0.49-0.07,0.74
		c-0.02,0.24-0.05,0.48-0.04,0.72C-3240.73,1051.08-3240.69,1051.31-3240.67,1051.55z M-3210.28,1036.2
		c1.58-2.21,3.1-4.35,4.56-6.24c5.8-7.51,11.63-14.6,19.03-18.69c5.92-3.27,14.47-4.69,20.23-0.49c4.03,2.93,6.53,8.74,6.52,15.19
		c0,7.07-2.67,14.31-5.29,20.45c-5.61,13.22-11.72,21.32-19.09,25.43c-13.89-0.78-30.63-7.9-39.01-19.47
		C-3218.43,1047.61-3214.16,1041.65-3210.28,1036.2z"/>
	<path d="M-3252.13,955.16c-12.72-6.23-29.01-4.89-42.52,3.51c-12.53,7.79-22.69,22-28.11,32.84c0,0,0,0.01-0.01,0.01
		c0,0.01-0.01,0.01-0.01,0.02c-0.05,0.1-0.11,0.2-0.16,0.3c-0.05,0.11-0.07,0.22-0.12,0.33c-3.65,7.23-2.53,16.76,2.94,23.98
		c4.92,6.49,12.16,10.11,17.18,12.27c11.42,4.91,24.02,7.61,36.44,7.82c0.04,0,0.09,0,0.13,0c0.63,0,1.23-0.1,1.81-0.24
		c0.15-0.04,0.3-0.09,0.45-0.14c0.46-0.14,0.89-0.32,1.31-0.55c0.14-0.07,0.28-0.14,0.41-0.22c0.51-0.32,0.99-0.68,1.41-1.1
		c0.07-0.07,0.13-0.16,0.2-0.24c0.36-0.4,0.68-0.83,0.95-1.29c0.05-0.08,0.11-0.13,0.16-0.21c2.69-4.99,5.47-11.7,8.16-18.2
		c2.54-6.15,5.18-12.5,7.5-16.81c3.36-6.22,9.6-17.81,4.91-29.09C-3241.36,962.72-3245.86,958.23-3252.13,955.16z M-3257.4,990.01
		c-2.69,4.98-5.47,11.7-8.17,18.2c-1.8,4.36-3.65,8.81-5.4,12.57c-8.9-0.68-17.79-2.84-25.96-6.35c-5.53-2.38-8.94-4.69-11.06-7.49
		c-1.96-2.58-2.59-6.04-1.47-8.05c0.03-0.05,0.04-0.11,0.07-0.16c0.03-0.05,0.07-0.1,0.1-0.15c5.59-11.31,14.49-21.9,22.68-26.99
		c8.95-5.57,19.86-6.65,27.79-2.77c2.86,1.4,4.87,3.24,5.68,5.17C-3251.47,978.02-3254.2,984.07-3257.4,990.01z"/>
	<path d="M-2813.62,946.93c-3.78-2.32-7.68-4.33-11.7-6.07c-4.01-1.75-8.14-3.23-12.41-4.4c-4.27-1.14-8.65-2.04-13.36-2.15
		c-1.03-0.02-2.07,0.37-2.85,1.16c-1.5,1.52-1.48,3.97,0.05,5.47c3.36,3.3,7.05,5.81,10.84,8.09c3.81,2.24,7.74,4.18,11.79,5.84
		c4.05,1.66,8.21,3.07,12.5,4.16c4.31,1.04,8.7,1.9,13.44,1.95c0.86,0.01,1.74-0.32,2.4-0.98c1.33-1.31,1.34-3.45,0.03-4.78
		C-2806.2,951.85-2809.87,949.29-2813.62,946.93z"/>
	<path d="M-2438.62,1260.86l-267.1-94.86c-0.76-0.27-1.61,0.11-1.92,0.86c-0.31,0.78,0.06,1.66,0.84,1.98l262.78,106.24
		c0.09,0.04,0.21,0.08,0.31,0.12c3.96,1.41,8.31-0.66,9.72-4.62C-2432.59,1266.61-2434.66,1262.26-2438.62,1260.86z"/>
	<path d="M-2502.08,1110.1c0.13,0.02,0.29,0.04,0.42,0.05c4.18,0.39,7.89-2.69,8.28-6.87c0.39-4.18-2.69-7.89-6.87-8.28
		l-218.13-20.33c-0.8-0.07-1.53,0.49-1.64,1.29c-0.12,0.83,0.45,1.6,1.28,1.73L-2502.08,1110.1z"/>
	<path d="M-2421.21,958.39c-0.59-4.16-4.45-7.05-8.61-6.46l-292.92,41.77c-0.8,0.12-1.38,0.84-1.3,1.66
		c0.08,0.84,0.83,1.44,1.67,1.36l294.39-29.68c0.09-0.01,0.22-0.02,0.31-0.04C-2423.51,966.4-2420.61,962.55-2421.21,958.39z"/>
	<path d="M-2731.07,914.52l200.41-69.52c0.13-0.05,0.28-0.1,0.41-0.15c3.89-1.6,5.74-6.05,4.13-9.94c-1.6-3.89-6.05-5.74-9.94-4.13
		l-196.09,80.9c-0.74,0.31-1.12,1.14-0.86,1.9C-2732.73,914.38-2731.87,914.8-2731.07,914.52z"/>
	<path d="M-2730.75,813.99l210.51-137.99c0.09-0.06,0.21-0.14,0.3-0.21c3.4-2.47,4.15-7.23,1.68-10.63
		c-2.47-3.4-7.23-4.15-10.63-1.68l-203.59,148.01c-0.65,0.47-0.82,1.38-0.38,2.06C-2732.39,814.25-2731.45,814.45-2730.75,813.99z"
		/>
	<path d="M-2730.48,672.2l51.36-48.79c0.3-0.29,0.61-0.64,0.87-0.98c2.52-3.38,1.81-8.17-1.57-10.68
		c-3.38-2.51-8.17-1.81-10.68,1.57l-42.25,56.86c-0.44,0.58-0.4,1.41,0.12,1.96C-2732.05,672.75-2731.09,672.78-2730.48,672.2z"/>
	<path d="M-2985.75,757.14c0.81,0.22,1.65-0.26,1.86-1.07l70.34-259.8c0.03-0.1,0.06-0.23,0.08-0.33c0.91-4.1-1.67-8.17-5.77-9.08
		c-4.1-0.91-8.17,1.67-9.08,5.77l-58.52,262.71C-2987.01,756.13-2986.54,756.93-2985.75,757.14z"/>
	<path d="M-3054.18,756.2c4.2-0.08,7.54-3.55,7.47-7.75l-6.09-329.11c-0.02-0.81-0.67-1.48-1.49-1.49
		c-0.84-0.02-1.53,0.65-1.55,1.49l-6.09,329.11c0,0.08,0,0.2,0,0.28C-3061.85,752.94-3058.38,756.28-3054.18,756.2z"/>
	<path d="M-3136.25,734.85c0.03,0.11,0.06,0.25,0.09,0.37c1.11,4.05,5.29,6.45,9.34,5.34c4.05-1.11,6.45-5.29,5.34-9.34
		l-64.64-237.12c-0.21-0.78-1-1.26-1.79-1.09c-0.82,0.18-1.34,0.99-1.16,1.81L-3136.25,734.85z"/>
	<path d="M-3311.04,867.55c0.08,0.06,0.19,0.13,0.27,0.19c3.51,2.31,8.23,1.34,10.54-2.17c2.31-3.51,1.34-8.23-2.17-10.54
		l-232.96-153.54c-0.68-0.44-1.59-0.28-2.07,0.38c-0.49,0.68-0.34,1.63,0.34,2.12L-3311.04,867.55z"/>
	<path d="M-3546.44,850.45l204.94,84.25c0.12,0.05,0.27,0.1,0.39,0.15c3.97,1.38,8.31-0.71,9.69-4.68c1.38-3.97-0.72-8.31-4.68-9.69
		l-209.25-72.87c-0.76-0.26-1.6,0.11-1.91,0.86C-3547.59,849.25-3547.22,850.14-3546.44,850.45z"/>
	<path d="M-3370.79,1004.72c4.18,0.42,7.91-2.63,8.33-6.81c0.42-4.18-2.63-7.91-6.81-8.33l-287.92-28.91
		c-0.81-0.08-1.54,0.49-1.66,1.3c-0.12,0.83,0.46,1.6,1.29,1.72l286.45,40.99C-3371.02,1004.7-3370.89,1004.71-3370.79,1004.72z"/>
	<path d="M-3568.77,1097.82c0.08,0.84,0.82,1.45,1.66,1.37l216.86-20.19c0.13-0.01,0.29-0.03,0.42-0.05c4.16-0.62,7.02-4.5,6.4-8.65
		c-0.62-4.16-4.5-7.02-8.65-6.4l-215.39,32.27C-3568.27,1096.3-3568.85,1097.01-3568.77,1097.82z"/>
	<path d="M-3328.57,1147.55c3.9-1.57,5.78-6,4.21-9.9c-1.57-3.9-6-5.78-9.9-4.21l-273.64,110.36c-0.75,0.3-1.14,1.15-0.86,1.92
		c0.28,0.79,1.15,1.2,1.94,0.92l277.96-98.98C-3328.78,1147.63-3328.66,1147.58-3328.57,1147.55z"/>
	<path d="M-3301.93,1215.6c3.37-2.51,4.06-7.28,1.55-10.65s-7.28-4.06-10.65-1.55l-133.14,99.29c-0.63,0.47-0.8,1.36-0.37,2.04
		c0.45,0.71,1.39,0.92,2.1,0.46l140.06-89.27C-3302.24,1215.82-3302.08,1215.71-3301.93,1215.6z"/>
	<path d="M-3251.12,1269.1c2.71-3.21,2.3-8.01-0.91-10.72c-3.21-2.71-8.01-2.3-10.72,0.91l-162.1,192.15
		c-0.52,0.62-0.47,1.54,0.13,2.09c0.61,0.57,1.58,0.54,2.15-0.08l171.22-184.08C-3251.29,1269.3-3251.2,1269.19-3251.12,1269.1z"/>
	<path d="M-3197.69,1308.27c-3.76-1.88-8.33-0.35-10.2,3.41l-133.85,268.27c-0.36,0.73-0.09,1.62,0.63,2.01
		c0.74,0.4,1.66,0.14,2.06-0.6l144.63-262.61c0.04-0.08,0.1-0.19,0.14-0.27C-3192.4,1314.72-3193.92,1310.15-3197.69,1308.27z"/>
	<path d="M-3128.16,1334.06c-4.11-0.87-8.15,1.76-9.02,5.87l-38.64,182.3c-0.16,0.78,0.3,1.56,1.08,1.78
		c0.81,0.23,1.65-0.24,1.88-1.05l50.46-179.38c0.04-0.15,0.09-0.33,0.12-0.48C-3121.42,1338.97-3124.04,1334.93-3128.16,1334.06z"/>
</g>
<path d="M1382.74,1405.9c0.17-0.22,0.32-0.44,0.47-0.67c0.14-0.22,0.28-0.43,0.39-0.66c0.12-0.23,0.22-0.48,0.32-0.72
	c0.1-0.25,0.19-0.5,0.27-0.75c0.07-0.26,0.13-0.52,0.18-0.78c0.05-0.25,0.09-0.51,0.12-0.77c0.03-0.3,0.03-0.6,0.02-0.91
	c0-0.16,0.02-0.32,0.01-0.48l-32.58-415.01c-0.05-0.64-0.19-1.24-0.37-1.82l-3.35-400.66c-0.14-16.57-0.3-35.34-7.84-52.39
	c-7.26-16.4-24.93-33.34-46.53-31.79c-15.22,1.09-29.96,11.71-38.49,27.7c-7.19,13.5-9.54,28.74-11.61,42.19l-51.9,337.02
	c-14.56-8.51-27.57-20.9-40.21-32.95c-20.33-19.4-41.36-39.46-70.05-45.34c-23.78-4.87-49.72,1.46-73.88,17.17
	c-20.34-15.27-41.38-31.03-66.46-39.87c-24.23-8.54-49.15-8.38-69.1,0L720.07,535.68c-12.08-21.34-29.42-45.7-56.04-44.98
	c-25.03,0.72-42.53,24.98-46.88,48.57c-6.15,33.4,5.77,66.21,18.51,96.96c42.13,101.67,93.32,198.89,142.13,289.74
	c0.34,0.63,0.76,1.18,1.23,1.68l-58.44,95.81c-14.6,23.94-26.67,49.44-16.23,73.78c4.42,10.31,12.96,18.98,23.86,24.81
	c-3.07,3.92-5.31,8.68-6.18,13.94c-1.67,10.12,1.26,19.94,4.01,27.36c1.12,3.03,2.35,6.08,3.67,9.06c0,0.01,0.01,0.02,0.02,0.02
	c0.23,0.52,0.51,1.02,0.86,1.49c18.33,25.19,34.29,64.96,40.68,101.32l0.51,2.95c1.17,6.9,2.38,14.03,5.57,20.95
	c4.39,9.5,11.97,16.19,20.54,18.37c69.08,44.88,171,113.02,262.9,188.9c0.04,0.03,0.08,0.05,0.12,0.08
	c0.17,0.14,0.35,0.25,0.53,0.37c0.25,0.17,0.49,0.33,0.75,0.47c0.18,0.1,0.37,0.17,0.56,0.25c0.29,0.13,0.57,0.24,0.87,0.33
	c0.19,0.06,0.38,0.1,0.57,0.15c0.33,0.08,0.66,0.13,0.99,0.16c0.11,0.01,0.22,0.05,0.33,0.05c11.25,0.7,22.03,1.04,32.44,1.04
	c106.87,0,173.4-36.41,282.59-101.46c0.15-0.09,0.26-0.2,0.4-0.3c0.24-0.17,0.48-0.33,0.71-0.53c0.2-0.17,0.39-0.36,0.57-0.55
	C1382.4,1406.29,1382.58,1406.1,1382.74,1405.9z M650.84,629.94c-11.8-28.48-22.87-58.7-17.53-87.69
	c3.07-16.68,15.05-34.66,31.19-35.12c17.93-0.48,31.45,19.31,41.26,36.64l152.12,268.77c-15.43,11.3-25.55,27.71-34.48,42.36
	l-34.63,56.77C741.21,823.05,691.68,728.49,650.84,629.94z M719.46,1090.76c-7.5-17.49,2.85-38.56,15.16-58.74l102.81-168.56
	c8.65-14.19,18.46-30.27,32.68-39.52c16.99-11.04,41.54-12.55,65.68-4.04c21.16,7.46,39.97,20.98,58.1,34.55
	c-6.89,5.71-13.57,12.17-19.91,19.42c-14.93,17.07-27.98,35.72-40.61,53.76c-8.91,12.73-18.12,25.89-27.88,38.32
	c-0.24,0.3-0.45,0.62-0.64,0.95l-0.69,1.19l-106.49,141.02c-0.31,0.03-0.63,0.04-0.95,0.1c-14.71,3.17-30.33,6.06-45.23,3.57
	C739.73,1110.82,725.14,1104,719.46,1090.76z M1069.14,1492c-92.48-76.12-194.52-144.26-263.42-189.01
	c-0.01-0.01-0.02-0.01-0.03-0.01c-0.34-0.22-0.72-0.4-1.1-0.57c-0.13-0.06-0.24-0.14-0.37-0.19c-0.11-0.04-0.23-0.06-0.34-0.1
	c-0.41-0.14-0.83-0.27-1.25-0.34c-0.01,0-0.02-0.01-0.03-0.01c-4.74-0.8-8.45-5.45-10.34-9.54c-2.28-4.93-3.25-10.69-4.29-16.8
	l-0.52-3.05c-6.82-38.82-23.25-79.78-42.96-107.26c-1.08-2.47-2.11-4.99-3.04-7.49c-2.04-5.52-4.25-12.67-3.21-18.98
	c0.83-5.05,4.27-9.37,7.98-10.06c0.07-0.01,0.14-0.05,0.21-0.06c0.77,0.16,1.54,0.32,2.33,0.46c4.85,0.81,9.73,1.15,14.57,1.15
	c9.93,0,19.71-1.44,28.86-3.22c3.81,17.45,14.23,33.78,29.47,45.77c14.78,11.62,32.45,17.89,49.78,17.89
	c3.52,0,7.02-0.26,10.48-0.78c6.59-1,12.88-2.8,18.89-5.19c21.57,9.16,52.91,41.89,67.95,60.87c1.62,2.05,4.02,3.11,6.44,3.11
	c1.79,0,3.59-0.58,5.1-1.78c3.56-2.82,4.15-7.99,1.33-11.55c-12.38-15.62-39.04-44.8-63.13-59.8
	c18.02-11.41,32.94-27.19,45.07-40.03l107.87-114.2c15.46,15.24,37.23,24.05,58.94,24.05c2.92,0,5.83-0.16,8.73-0.48
	c4.51-0.5,7.76-4.57,7.26-9.08c-0.5-4.51-4.55-7.75-9.08-7.26c-19.75,2.2-40.48-5.14-54.56-19.19l28.76-30.45
	c3.12-3.3,2.97-8.5-0.33-11.62c-3.3-3.12-8.5-2.97-11.62,0.33l-147.93,156.61c-23.21,24.57-44.66,45.24-72.17,49.41
	c-16.05,2.43-33.42-2.59-47.64-13.78c-12.49-9.82-20.92-23.12-23.76-37.17l109.5-145.01c0.2-0.26,0.38-0.54,0.55-0.83l0.65-1.13
	c9.9-12.65,19.13-25.83,28.06-38.59c12.37-17.68,25.17-35.96,39.51-52.37c28.01-32.03,62.39-47.54,91.94-41.49
	c24.07,4.93,42.5,22.52,62.01,41.13c14.87,14.19,30.26,28.77,48.9,38.29l-4.39,28.54c-0.69,4.48,2.39,8.68,6.87,9.37
	c4.49,0.7,8.68-2.39,9.37-6.87L1260,570.87c1.96-12.75,3.99-25.94,9.87-36.97c4.61-8.66,13.64-18.21,25.15-19.04
	c13.73-0.97,25.32,10.75,30.33,22.05c6.17,13.93,6.31,30.17,6.44,45.87l3.38,403.49c0.01,1.08,0.24,2.1,0.62,3.04l31.95,407.02
	C1254.34,1463.8,1187.87,1498.79,1069.14,1492z"/>
</svg>
